<svg xmlns="http://www.w3.org/2000/svg" width="614.256" height="650" viewBox="0 0 614.256 650">
  <g id="Copyright-cuate_1_" data-name="Copyright-cuate (1)" transform="translate(-38.72 -36.28)">
    <g id="freepik--background-complete--inject-5" transform="translate(42.03 62.464)">
      <rect id="Rectangle_8" data-name="Rectangle 8" width="51.954" height="16.535" transform="translate(566.75 395.491) rotate(180)" fill="#ebebeb"/>
      <path id="Path_2" data-name="Path 2" d="M409.115,341.339c8.615-.148,30.75-.517,39.069-.606h12.87l-.665.665-.074-16.535.739.739c-8.629,0-30.617-.1-38.965-.222l-12.974-.163.34-.355Zm0,0L408.76,324.8v-.34h.355l25.962-.281,25.977-.1h.739v17.953H448.006c-8.275-.1-30.292-.473-38.832-.621Z" transform="translate(134.717 75.002)" fill="#ebebeb"/>
      <path id="Path_3" data-name="Path 3" d="M274.775,399.744c8.629-.148,30.75-.517,39.084-.621h12.87l-.68.68V383.268l.739.739-25.977-.1-25.977-.281.355-.355-.355,16.535Zm0,0-.355-16.505v-.355h.355c6.487-.089,19.49-.236,25.977-.281l25.977-.1h.739v.739l-.074,16.535v.68H313.622c-8.275-.089-30.306-.458-38.847-.606Z" transform="translate(70.551 102.905)" fill="#ebebeb"/>
      <path id="Path_4" data-name="Path 4" d="M294.4,413.864c8.629-.148,30.75-.517,39.084-.621h12.87l-.68.68V397.388l.739.739c-8.63,0-30.632-.118-38.965-.236l-12.988-.163.355-.34-.355,16.535Zm0,0-.4-16.535v-.355h.355c6.487-.089,19.5-.236,25.977-.281l25.977-.1h.739v.739l-.074,16.535v.68H333.2c-8.275-.089-30.306-.458-38.847-.606Z" transform="translate(79.903 109.635)" fill="#ebebeb"/>
      <rect id="Rectangle_9" data-name="Rectangle 9" width="51.954" height="16.535" transform="translate(455.114 502.65) rotate(180)" fill="#ebebeb"/>
      <rect id="Rectangle_10" data-name="Rectangle 10" width="51.954" height="16.535" transform="translate(158.817 551.042) rotate(180)" fill="#ebebeb"/>
      <rect id="Rectangle_11" data-name="Rectangle 11" width="51.954" height="16.535" transform="translate(106.346 17.215) rotate(180)" fill="#ebebeb"/>
      <path id="Path_5" data-name="Path 5" d="M58.275,85.354c8.629-.148,30.75-.517,39.084-.621h12.87l-.68.68V68.878l.739.739c-8.629,0-30.632-.118-38.965-.236l-12.988-.163.355-.34-.355,16.535Zm0,0L57.92,68.819v-.355h.355c6.487-.089,19.49-.236,25.977-.3l25.977-.089h.739V86.033H97.2c-8.275-.089-30.306-.473-38.847-.606Z" transform="translate(-32.859 -47.275)" fill="#ebebeb"/>
      <path id="Path_6" data-name="Path 6" d="M387.185,71.229c8.629-.148,30.75-.517,39.084-.621h12.87l-.68.68V54.754l.739.739-25.977-.1c-6.472,0-19.5-.207-25.977-.3l.355-.34-.355,16.535Zm0,0-.355-16.535V54.34h.355c6.487-.089,19.5-.236,25.977-.3L439.138,54h.739v.754L439.8,71.288v.665H426.032c-8.275-.089-30.292-.473-38.847-.606Z" transform="translate(124.242 -54)" fill="#ebebeb"/>
      <path id="Path_7" data-name="Path 7" d="M467.663,320.63,350.22,291.919,387.087,141.17l87.2,21.322L497.5,198.606Z" transform="translate(106.756 -12.364)" fill="#ebebeb"/>
      <path id="Path_8" data-name="Path 8" d="M436.449,155.6l23.214,36.114-30.233-7.4Z" transform="translate(144.59 -5.472)" fill="#dbdbdb"/>
      <rect id="Rectangle_12" data-name="Rectangle 12" width="67.218" height="3.99" transform="translate(563.455 176.744) rotate(-166.26)" fill="#dbdbdb"/>
      <rect id="Rectangle_13" data-name="Rectangle 13" width="67.218" height="3.99" transform="translate(561.071 186.499) rotate(-166.26)" fill="#dbdbdb"/>
      <rect id="Rectangle_14" data-name="Rectangle 14" width="67.218" height="3.99" transform="translate(558.683 196.272) rotate(-166.26)" fill="#dbdbdb"/>
      <rect id="Rectangle_15" data-name="Rectangle 15" width="98.485" height="3.99" transform="translate(586.656 213.482) rotate(-166.26)" fill="#dbdbdb"/>
      <rect id="Rectangle_16" data-name="Rectangle 16" width="98.485" height="3.99" transform="translate(584.271 223.241) rotate(-166.26)" fill="#dbdbdb"/>
      <rect id="Rectangle_17" data-name="Rectangle 17" width="98.485" height="3.99" transform="translate(581.883 233.011) rotate(-166.26)" fill="#dbdbdb"/>
      <rect id="Rectangle_18" data-name="Rectangle 18" width="98.485" height="3.99" transform="translate(579.495 242.799) rotate(-166.26)" fill="#dbdbdb"/>
      <rect id="Rectangle_19" data-name="Rectangle 19" width="98.485" height="3.99" transform="translate(577.107 252.572) rotate(-166.26)" fill="#dbdbdb"/>
      <rect id="Rectangle_20" data-name="Rectangle 20" width="98.485" height="3.99" transform="translate(574.707 262.327) rotate(-166.26)" fill="#dbdbdb"/>
      <rect id="Rectangle_21" data-name="Rectangle 21" width="98.485" height="3.99" transform="translate(572.319 272.1) rotate(-166.26)" fill="#dbdbdb"/>
      <rect id="Rectangle_22" data-name="Rectangle 22" width="98.485" height="3.99" transform="translate(569.945 281.873) rotate(-166.26)" fill="#dbdbdb"/>
      <rect id="Rectangle_23" data-name="Rectangle 23" width="98.485" height="3.99" transform="translate(567.543 291.643) rotate(-166.26)" fill="#dbdbdb"/>
      <path id="Path_9" data-name="Path 9" d="M458.023,270.927a21.2,21.2,0,1,1-15.53-25.637A21.2,21.2,0,0,1,458.023,270.927Z" transform="translate(138.28 37.073)" fill="#c7c7c7"/>
      <rect id="Rectangle_24" data-name="Rectangle 24" width="21.027" height="19.076" transform="translate(566.785 295.268) rotate(13.74)" fill="#fff"/>
      <path id="Path_10" data-name="Path 10" d="M441.254,266.784l-2.084-.5,2.024-8.275a6.265,6.265,0,1,0-12.176-2.955l-2.024,8.275L425,262.75l2.024-8.275a8.411,8.411,0,1,1,16.343,3.99Z" transform="translate(142.474 38.689)" fill="#fff"/>
      <path id="Path_11" data-name="Path 11" d="M431.668,263.253l-.133,4.271-3.635-.887,1.847-3.857a1.862,1.862,0,1,1,1.921.473Z" transform="translate(143.859 44.214)" fill="#c7c7c7"/>
      <rect id="Rectangle_25" data-name="Rectangle 25" width="149.67" height="108.577" transform="translate(202.979 402.891) rotate(163.04)" fill="#ebebeb"/>
      <rect id="Rectangle_26" data-name="Rectangle 26" width="137.243" height="96.106" transform="translate(195.228 398.751) rotate(163.04)" fill="#fff"/>
      <path id="Path_12" data-name="Path 12" d="M81.272,309.415a14.776,14.776,0,1,0,1.08-11.3A14.777,14.777,0,0,0,81.272,309.415Z" transform="translate(-22.018 58.858)" fill="#dbdbdb"/>
      <path id="Path_13" data-name="Path 13" d="M110.01,368.058l91.732-27.972L136.918,291.9Z" transform="translate(-7.979 59.631)" fill="#dbdbdb"/>
      <path id="Path_14" data-name="Path 14" d="M85.68,367.7l75.729-23.1L111.2,315.67Z" transform="translate(-19.6 70.985)" fill="#ebebeb"/>
      <rect id="Rectangle_27" data-name="Rectangle 27" width="149.67" height="108.577" transform="translate(181.793 446.237) rotate(154.57)" fill="#ebebeb"/>
      <rect id="Rectangle_28" data-name="Rectangle 28" width="137.243" height="96.106" transform="translate(173.497 443.276) rotate(154.57)" fill="#fff"/>
      <path id="Path_15" data-name="Path 15" d="M64.757,354.008a14.776,14.776,0,1,0-.588-11.333A14.776,14.776,0,0,0,64.757,354.008Z" transform="translate(-30.284 79.192)" fill="#dbdbdb"/>
      <path id="Path_16" data-name="Path 16" d="M98.85,408.31l86.619-41.2L114.247,329.02Z" transform="translate(-13.309 77.361)" fill="#dbdbdb"/>
      <path id="Path_17" data-name="Path 17" d="M75.89,411.469l71.5-34L93.459,356.25Z" transform="translate(-24.276 90.367)" fill="#ebebeb"/>
      <circle id="Ellipse_1" data-name="Ellipse 1" cx="34.991" cy="34.991" r="34.991" transform="translate(123.812 22.401)" fill="#ebebeb"/>
      <path id="Path_18" data-name="Path 18" d="M134.52,99.783A21.588,21.588,0,0,1,156.064,78.49a22.3,22.3,0,0,1,13.491,4.669,4.64,4.64,0,0,1,.931,6.265,4.522,4.522,0,0,1-6.369.857,13.505,13.505,0,0,0-8.053-2.719,12.176,12.176,0,1,0,0,24.352,13.712,13.712,0,0,0,8.053-2.719,4.625,4.625,0,0,1,6.369.931,4.684,4.684,0,0,1-.931,6.28,23.361,23.361,0,0,1-13.491,4.433A21.485,21.485,0,0,1,134.52,99.783Z" transform="translate(3.728 -42.303)" fill="#fff"/>
    </g>
    <g id="freepik--Floor--inject-5" transform="translate(48.857 654.5)">
      <path id="Path_19" data-name="Path 19" d="M649.7,455.338c-193.571.916-410.607.916-604.119,0C239.151,454.437,456.187,454.437,649.7,455.338Z" transform="translate(-45.58 -454.662)" fill="#263238"/>
    </g>
    <g id="freepik--Shield--inject-5" transform="translate(38.72 161.82)">
      <path id="Path_20" data-name="Path 20" d="M201.083,152s12.353,96.224-1.7,122.245c-16.86,31.223-34.8,31.961-40.872,47.388h0c-12.826-10.521-28.844-2.409-58.81-21.485C74.76,284.268,38.72,194.206,38.72,194.206,83.7,156.349,106.4,121.24,106.4,121.24h0C107.549,121.861,144.253,141.085,201.083,152Z" transform="translate(-38.72 -121.24)" fill="#455a64"/>
      <path id="Path_21" data-name="Path 21" d="M106.426,121.255l52.087,200.383h0c-12.826-10.521-28.844-2.408-58.81-21.485C74.76,284.268,38.72,194.206,38.72,194.206,83.7,156.349,106.4,121.24,106.4,121.24Z" transform="translate(-38.72 -121.24)" opacity="0.1"/>
      <path id="Path_22" data-name="Path 22" d="M48.55,193.422s30.469,76.113,51.54,89.5c25.312,16.136,38.847,9.28,49.678,18.16,5.142-13.033,20.3-13.639,34.562-40.059,11.821-21.987,1.4-103.272,1.4-103.272-48.762-9.383-79.97-25.992-79.97-25.992S86.57,161.475,48.55,193.422Z" transform="translate(-34.025 -116.215)" fill="#455a64"/>
      <path id="Path_23" data-name="Path 23" d="M48.55,193.422s30.469,76.113,51.54,89.5c25.312,16.136,38.847,9.28,49.678,18.16,5.142-13.033,20.3-13.639,34.562-40.059,11.821-21.987,1.4-103.272,1.4-103.272-48.762-9.383-79.97-25.992-79.97-25.992S86.57,161.475,48.55,193.422Z" transform="translate(-34.025 -116.215)" opacity="0.1"/>
      <path id="Path_24" data-name="Path 24" d="M48.55,193.412s30.469,76.113,51.54,89.5c25.3,16.121,38.832,9.294,49.664,18.131l-44-169.264C105.158,132.7,85.979,161.968,48.55,193.412Z" transform="translate(-34.025 -116.206)" opacity="0.1"/>
      <path id="Path_25" data-name="Path 25" d="M123.958,178.8l5.246,20.14-5.7,1.478-5.231-20.155c-1.995-7.654-9.427-12.383-16.594-10.521s-11.348,9.6-9.368,17.274l5.246,20.14-5.689,1.478-5.246-20.14c-2.852-10.979,3.206-22.076,13.506-24.75S121.106,167.817,123.958,178.8Z" transform="translate(-16.179 -101.22)" fill="#fff"/>
      <rect id="Rectangle_29" data-name="Rectangle 29" width="59.828" height="44.094" transform="translate(62.735 101.083) rotate(-14.452)" fill="#fff"/>
      <path id="Path_26" data-name="Path 26" d="M109.009,201.627l4.906,9.871-9.339,2.423-.517-11.008a4.817,4.817,0,1,1,4.95-1.286Z" transform="translate(-9.12 -86.725)" fill="#455a64"/>
    </g>
    <g id="freepik--Plant--inject-5" transform="translate(511.506 444.434)">
      <path id="Path_27" data-name="Path 27" d="M394.12,428.334s11.91-42.719,21.411-57.229S442.7,340.68,442.7,340.68,442.336,406.553,394.12,428.334Z" transform="translate(-341.752 -299.04)" fill="#fc2a40"/>
      <path id="Path_28" data-name="Path 28" d="M394.709,422.015a202.482,202.482,0,0,0,10.846-20.687,145.209,145.209,0,0,1,5.911-22.46.118.118,0,0,1,.222.074c-1.581,6.753-3.428,13.447-5.1,20.17,4.817-10.344,9.383-20.923,15.1-30.75a65.464,65.464,0,0,1,5.512-13.683c.074-.118.281,0,.222.089a85.98,85.98,0,0,0-3.724,10.255,101.74,101.74,0,0,1,9.043-12.5c.207-.237.635,0,.429.3-7.654,9.767-12.944,20.864-17.968,32.124a170.911,170.911,0,0,0,14.939-18.677l.1.074a152.215,152.215,0,0,1-16,20.687c-3.65,8.245-7.255,16.52-11.629,24.366,8.733-7.388,15.441-16.934,22.091-26.139a.2.2,0,0,1,.325.222c-6.649,10.107-13.521,19.623-23.1,27.115a105.551,105.551,0,0,1-6.383,9.974.517.517,0,0,1-.842-.547Z" transform="translate(-341.484 -293.43)" fill="#263238"/>
      <path id="Path_29" data-name="Path 29" d="M396.9,441.882s21.4-39.394,15.175-77.591S399.222,312.5,399.222,312.5,365.591,371.9,396.9,441.882Z" transform="translate(-346.795 -312.5)" fill="#fc2a40"/>
      <path id="Path_30" data-name="Path 30" d="M386.712,373.9a185.181,185.181,0,0,0,8.26,31.8c0-14.008.325-28.075.695-42.039a109.122,109.122,0,0,1-4-26.11c0-.251.384-.236.4,0a147.512,147.512,0,0,0,3.753,22.46q.488-17.362,1.123-34.68a.148.148,0,1,1,.3,0c0,18.057,0,36.128-.118,54.185a145.112,145.112,0,0,0,6.177-21.455h.118a83.973,83.973,0,0,1-6.339,24.485c-.089,11.54-.207,23.1-.473,34.636,3.62-12.279,7.492-24.16,8.541-37.133a.133.133,0,1,1,.266,0c-.281,14.3-3.975,28.829-8.689,42.275a.989.989,0,0,1-.236.34c-.1,4.226-.236,8.437-.369,12.663a.473.473,0,1,1-.946,0q-.251-12.974-.207-25.9a116.337,116.337,0,0,1-8.437-35.463C386.52,373.809,386.7,373.794,386.712,373.9Z" transform="translate(-345.382 -306.444)" fill="#263238"/>
      <path id="Path_31" data-name="Path 31" d="M387.8,354.048a72.592,72.592,0,0,1,1.478,10.344c0,.118-.177.133-.207,0a76.4,76.4,0,0,1-1.758-10.344C387.3,353.871,387.753,353.827,387.8,354.048Z" transform="translate(-345.005 -292.726)" fill="#263238"/>
      <path id="Path_32" data-name="Path 32" d="M396.488,334.565c0-.118.192-.089.192,0a26.9,26.9,0,0,1-1.064,7.181c0,.192-.325.1-.3-.089C395.793,339.323,396.074,336.929,396.488,334.565Z" transform="translate(-341.18 -301.998)" fill="#263238"/>
      <path id="Path_33" data-name="Path 33" d="M400.97,429.932s.872-41.123-10.92-61.559-31.37-30.853-31.37-30.853S366.541,410,400.97,429.932Z" transform="translate(-358.68 -300.549)" fill="#fc2a40"/>
      <path id="Path_34" data-name="Path 34" d="M375.8,389.971a152.183,152.183,0,0,0,15.973,20.3q-3.546-12.619-8.171-24.795c-6.605-5.792-13.166-11.821-17.229-19.741,0-.133.118-.236.192-.118,4.359,7.034,10.2,12.663,16.343,18.072a315.859,315.859,0,0,0-16.431-35.759.266.266,0,0,1,.458-.266,199.036,199.036,0,0,1,10.343,18.766c-1.108-4.433-1.995-8.866-3.133-13.3,0-.118.148-.163.192,0a74.681,74.681,0,0,1,4.788,17.362,210.415,210.415,0,0,1,10.343,28.075c-.31-6.162-.694-12.309-1.33-18.456a.1.1,0,0,1,.207,0,100.354,100.354,0,0,1,1.788,20.687c1.7,6.132,3.133,12.338,4.27,18.574,0,.177-.207.251-.251.074-.65-2.615-1.345-5.216-2.054-7.8a.268.268,0,0,1-.133,0,83.665,83.665,0,0,1-16.254-21.633S375.768,389.927,375.8,389.971Z" transform="translate(-355.007 -295.757)" fill="#263238"/>
      <path id="Path_35" data-name="Path 35" d="M363.569,353.632c1.315,1.478,2.527,2.955,3.8,4.433a34.585,34.585,0,0,1,3.4,3.96l-.1.089a19.826,19.826,0,0,1-3.916-3.871,32.5,32.5,0,0,1-3.354-4.433.125.125,0,1,1,.177-.177Z" transform="translate(-356.447 -292.871)" fill="#263238"/>
      <path id="Path_36" data-name="Path 36" d="M426.529,402.1l-1.478,19.475-4.433,58.869H381.49l-4.433-58.869L375.58,402.1h51.008Z" transform="translate(-350.608 -269.703)" fill="#37474f"/>
      <path id="Path_37" data-name="Path 37" d="M426.548,402.1l-.9,11.821-49.058,1.965-1.049-13.8h51.008Z" transform="translate(-350.627 -269.708)" fill="#263238"/>
      <rect id="Rectangle_30" data-name="Rectangle 30" width="57.953" height="14.939" transform="translate(79.394 137.761) rotate(180)" fill="#37474f"/>
    </g>
    <g id="freepik--light-bulb--inject-5" transform="translate(202.576 263.054)">
      <g id="Group_13" data-name="Group 13" opacity="0.5">
        <path id="Path_38" data-name="Path 38" d="M445.907,348.005c-7.388,91.895-83.886,119.6-83.886,119.6-5.63,13.964-12.974,49.486-12.974,49.486H246.854s-7.388-35.463-12.974-49.486c0,0-76.557-27.706-83.886-119.6-5.1-63.849,40.369-158.241,147.395-158.255h1.123C405.538,189.765,451,284.156,445.907,348.005Z" transform="translate(-149.61 -189.75)" fill="#fc2a40"/>
      </g>
      <g id="Group_14" data-name="Group 14" transform="translate(12.695 13.905)" opacity="0.7">
        <path id="Path_39" data-name="Path 39" d="M429.169,343.969c-6.708,84.048-76.734,109.345-76.734,109.345-5.142,12.782-11.821,59.239-11.821,59.239H247.109S240.4,466.1,235.288,453.314c0,0-70.025-25.342-76.734-109.345-4.669-58.4,36.941-144.72,134.82-144.809h1C392.258,199.249,433.839,285.573,429.169,343.969Z" transform="translate(-158.202 -199.16)" fill="#fc2a40"/>
      </g>
      <rect id="Rectangle_31" data-name="Rectangle 31" width="4.433" height="117.739" transform="translate(104.079 220.604) rotate(-11.535)" fill="#fff"/>
      <rect id="Rectangle_32" data-name="Rectangle 32" width="117.724" height="4.433" transform="matrix(0.199, -0.98, 0.98, 0.199, 165.542, 335.624)" fill="#fff"/>
      <path id="Path_40" data-name="Path 40" d="M263.4,384.47c-7.122,0-13.653-6.177-18.234-14.052a9.722,9.722,0,0,1-6.753,3.605c-11.585,0-16.254-22.238-16.461-23.184l1.478-.3c0,.222,4.625,22,15.013,22h0a8.571,8.571,0,0,0,6.014-3.428,46.146,46.146,0,0,1-5.911-20.554c0-6.162,2.468-9.693,6.768-9.693,5.024,0,7.905,3.753,7.905,10.344a35,35,0,0,1-7.034,20.022c4.344,7.669,10.55,13.786,17.185,13.786h0c5.349,0,10.609-4.034,14.776-11.348.089-.162.192-.325.281-.5a20.97,20.97,0,0,1-3.3-4.344c-4.359-7.551-5.231-18.338-1.936-24.041A7.078,7.078,0,0,1,279.5,338.9h0a5.423,5.423,0,0,1,4.876,2.955c3.221,5.585,1.271,18.81-4.123,29.065a12.2,12.2,0,0,0,8.2,3.177h0c8.866,0,15.6-21.913,15.678-22.165l1.478.429c-.3.946-7.107,23.184-17.1,23.184h0a13.742,13.742,0,0,1-8.866-3.34l-.133.207C275.012,380.17,269.308,384.47,263.4,384.47Zm16.254-44.122h0a5.615,5.615,0,0,0-5.039,3.147c-2.955,5.2-2.113,15.53,1.951,22.564A20.393,20.393,0,0,0,279.3,369.8c5.054-9.8,6.915-22.165,3.945-27.263a3.916,3.916,0,0,0-3.591-2.187Zm-34.252,0c-4.433,0-5.29,4.433-5.29,8.216a44.506,44.506,0,0,0,5.423,19.209,34.133,34.133,0,0,0,6.295-18.648c-.059-3.251-.887-8.777-6.487-8.777Z" transform="translate(-115.057 -118.524)" fill="#fff"/>
      <rect id="Rectangle_33" data-name="Rectangle 33" width="128.023" height="70.454" transform="translate(84.329 327.475)" fill="#455a64"/>
      <path id="Path_41" data-name="Path 41" d="M315.5,459.05c-7.536,13.3-21.973,25.3-49.5,25.3s-41.965-11.954-49.5-25.3Z" transform="translate(-117.661 -61.121)" fill="#455a64"/>
      <path id="Path_42" data-name="Path 42" d="M315.5,459.05a47.372,47.372,0,0,1-8.3,10.831l-88.141-6.753a47.912,47.912,0,0,1-2.556-4.078Z" transform="translate(-117.661 -61.121)" fill="#37474f"/>
      <path id="Path_43" data-name="Path 43" d="M339.65,422.447l-135.5,12.53V428.83l135.5-12.53Z" transform="translate(-123.56 -81.54)" fill="#37474f"/>
      <path id="Path_44" data-name="Path 44" d="M339.65,435.037l-135.5,12.53V441.42l135.5-12.53Z" transform="translate(-123.56 -75.527)" fill="#37474f"/>
      <path id="Path_45" data-name="Path 45" d="M339.65,447.627l-135.5,12.53V454.01l135.5-12.53Z" transform="translate(-123.56 -69.513)" fill="#37474f"/>
      <g id="Group_15" data-name="Group 15" transform="translate(30.562 37.232)" opacity="0.5">
        <path id="Path_46" data-name="Path 46" d="M172.357,314.5c4.7.783,10.772-23.435,36.823-51.481,11.57-12.456,55.471-28.075,52.309-42.408s-42.334.414-62.061,23.229C167.762,280.574,168.042,313.776,172.357,314.5Z" transform="translate(-170.293 -214.947)" fill="#fff"/>
        <path id="Path_47" data-name="Path 47" d="M330.1,290.067c8.629,0,8.644-13.417,0-13.417S321.439,290.067,330.1,290.067Z" transform="translate(-97.063 -185.474)" fill="#fff"/>
        <path id="Path_48" data-name="Path 48" d="M299.648,383.658c4.714,3.605,27.632-17.525,37.961-42.763,8.57-20.923,10.048-47.4,4.285-48.939s-9.516,34.784-16.446,48.156C316.774,357.06,294.609,379.845,299.648,383.658Z" transform="translate(-108.86 -178.187)" fill="#fff"/>
      </g>
    </g>
    <g id="freepik--Symbol--inject-5" transform="translate(260.987 322.81)">
      <path id="Path_49" data-name="Path 49" d="M214.26,308.873c0-30.292,25.3-54.5,55.382-54.673a57.362,57.362,0,0,1,34.636,12A11.984,11.984,0,0,1,306.7,282.32c-4.433,5.231-11.348,6.1-16.372,2.187a34.651,34.651,0,0,0-20.687-6.975c-17.732,0-32.272,14.6-32.272,31.385s14.614,31.163,32.272,31.163a35.242,35.242,0,0,0,20.687-6.974,11.91,11.91,0,0,1,16.372,2.408,12.043,12.043,0,0,1-2.423,16.121,59.9,59.9,0,0,1-34.636,11.555C239.557,363.146,214.26,338.736,214.26,308.873Z" transform="translate(-177.142 -218.722)" fill="#fc2a40"/>
      <g id="Group_16" data-name="Group 16" transform="translate(37.118 35.478)" opacity="0.1">
        <path id="Path_50" data-name="Path 50" d="M214.26,308.873c0-30.292,25.3-54.5,55.382-54.673a57.362,57.362,0,0,1,34.636,12A11.984,11.984,0,0,1,306.7,282.32c-4.433,5.231-11.348,6.1-16.372,2.187a34.651,34.651,0,0,0-20.687-6.975c-17.732,0-32.272,14.6-32.272,31.385s14.614,31.163,32.272,31.163a35.242,35.242,0,0,0,20.687-6.974,11.91,11.91,0,0,1,16.372,2.408,12.043,12.043,0,0,1-2.423,16.121,59.9,59.9,0,0,1-34.636,11.555C239.557,363.146,214.26,338.736,214.26,308.873Z" transform="translate(-214.26 -254.2)"/>
      </g>
      <path id="Path_51" data-name="Path 51" d="M279.069,410.049A89.929,89.929,0,1,1,369,320.119a89.929,89.929,0,0,1-89.929,89.929Zm0-161.152a71.237,71.237,0,1,0,71.222,71.227A71.24,71.24,0,0,0,279.069,248.9Z" transform="translate(-189.14 -230.19)" fill="#fc2a40"/>
      <path id="Path_52" data-name="Path 52" d="M279.069,410.049A89.929,89.929,0,1,1,369,320.119a89.929,89.929,0,0,1-89.929,89.929Zm0-161.152a71.237,71.237,0,1,0,71.222,71.227A71.24,71.24,0,0,0,279.069,248.9Z" transform="translate(-189.14 -230.19)" opacity="0.1"/>
    </g>
    <g id="freepik--Character--inject-5" transform="translate(226.707 74.946)">
      <path id="Path_53" data-name="Path 53" d="M454.255,330.448c-3.739.089-100.775-29.907-103.745-33.38-.325-.384,1.2-14.776,3.694-26.154.118-.547-34.444-45.807-34.444-45.807l62.5-24.307,29.907,61.913,7.772,16.106s32.375,32.508,35.242,36.7S457.993,330.374,454.255,330.448Z" transform="translate(-92.47 3.636)" fill="#eb9481"/>
      <path id="Path_54" data-name="Path 54" d="M444.9,310.264c-3.738.074-100.775-29.908-103.745-33.395-.325-.384,1.2-14.776,3.694-26.154,0-.177-2.216-3.206-5.5-7.625l65.445,3.532,5.792,12.013s32.375,32.508,35.242,36.7S448.636,310.175,444.9,310.264Z" transform="translate(-83.113 23.835)" fill="#ebebeb"/>
      <path id="Path_55" data-name="Path 55" d="M447.756,308.331c-3.9.1-105.193-30.809-108.311-34.429-1.2-1.374.621-7.639,5.526-25.652l66.39,7.994s34.267,32.183,37.266,36.527S451.657,308.228,447.756,308.331Z" transform="translate(-83.238 26.3)" fill="#fc2a40"/>
      <path id="Path_56" data-name="Path 56" d="M447.756,308.331c-3.9.1-105.193-30.809-108.311-34.429-1.2-1.374.621-7.639,5.526-25.652l66.39,7.994s34.267,32.183,37.266,36.527S451.657,308.228,447.756,308.331Z" transform="translate(-83.238 26.3)" opacity="0.3"/>
      <path id="Path_57" data-name="Path 57" d="M445.63,295.843c-16.845-5.6-85.349-26.6-102.43-30.853-.148,0-.177,0,0,.1,16.594,5.911,85.26,26.361,102.386,31.03C445.91,296.213,445.984,296.035,445.63,295.843Z" transform="translate(-81.333 34.296)" fill="#263238"/>
      <path id="Path_58" data-name="Path 58" d="M415.393,274.8a14.274,14.274,0,0,0-11.422,1.049,13.919,13.919,0,0,0-6.561,7.905c0,.1.162.163.207.074a16.476,16.476,0,0,1,17.732-8.866.118.118,0,0,0,.044-.163Z" transform="translate(-55.381 38.63)" fill="#263238"/>
      <path id="Path_59" data-name="Path 59" d="M399.577,258.651c-6.768-2.157-15.382-2.172-21.308,2.1-.222.163,0,.488.251.443a99.191,99.191,0,0,1,20.923-1.67.443.443,0,0,0,.133-.872Z" transform="translate(-64.567 30.587)" fill="#263238"/>
      <path id="Path_60" data-name="Path 60" d="M402.707,261.123c-6.768-2.172-15.382-2.172-21.308,2.1-.222.162,0,.488.251.443a99.13,99.13,0,0,1,20.909-1.67.443.443,0,0,0,.148-.872Z" transform="translate(-63.072 31.764)" fill="#263238"/>
      <path id="Path_61" data-name="Path 61" d="M405.837,263.593c-6.768-2.172-15.382-2.172-21.308,2.1-.222.163,0,.488.251.443a97.212,97.212,0,0,1,20.909-1.67.443.443,0,0,0,.148-.872Z" transform="translate(-61.577 32.944)" fill="#263238"/>
      <path id="Path_62" data-name="Path 62" d="M408.915,266.065c-6.768-2.172-15.367-2.187-21.293,2.083-.236.177,0,.488.237.458a97.418,97.418,0,0,1,21.056-1.67.443.443,0,0,0,0-.872Z" transform="translate(-60.103 34.122)" fill="#263238"/>
      <path id="Path_63" data-name="Path 63" d="M408.581,248.222c-2.571-3.9-7.758-2.438-10.787-.133a37.282,37.282,0,0,0-11.481,15.5.192.192,0,0,0,.148.251c0,.532.458,1.123,1.064.931,5.91-1.877,12.353-3.147,17.466-6.753C408.02,255.906,410.975,251.916,408.581,248.222Zm-12.752,11.9c-2.867.99-5.748,1.832-8.57,2.955a108.379,108.379,0,0,1,6.9-8.866,39.6,39.6,0,0,1,3.886-3.827c2.157-1.8,10.565-5.438,8.984,2.157C406.158,256.674,399.243,258.935,395.829,260.117Z" transform="translate(-60.686 25.131)" fill="#263238"/>
      <path id="Path_64" data-name="Path 64" d="M376.191,260.044c5.645,2.7,12.264,2.881,18.352,3.768.635.089.975-.562.887-1.093a.177.177,0,0,0,.1-.281,37.237,37.237,0,0,0-13.89-13.373c-3.369-1.788-8.718-2.364-10.609,1.906S372.911,258.478,376.191,260.044Zm-2.955-5.127c-2.822-7.226,6.073-5.039,8.5-3.62a39.018,39.018,0,0,1,4.433,3.133,112.32,112.32,0,0,1,8.29,7.625c-2.955-.606-5.911-.96-8.866-1.478-3.561-.621-10.757-1.67-12.309-5.659Z" transform="translate(-68.222 26.046)" fill="#263238"/>
      <path id="Path_65" data-name="Path 65" d="M353.3,255.558c6.782,1.684,4.2,12.205-2.6,10.536S346.513,253.888,353.3,255.558Z" transform="translate(-79.593 29.705)" fill="#fff"/>
      <path id="Path_66" data-name="Path 66" d="M467.487,280.38l-68.9,10.181s-34.739-59.106-49.93-76.143h0a23.533,23.533,0,0,0-2.778-2.719h0a14.035,14.035,0,0,0-4.965-1.241h0c-20.377-2.482-88.954,4.182-136.342,1.123l22.165-29.553,9.8-13.121C289.919,162.819,355.437,140.994,385,155.83,416.981,171.8,467.487,280.38,467.487,280.38Z" transform="translate(-147.49 -20.267)" fill="#263238"/>
      <path id="Path_67" data-name="Path 67" d="M396,230.561c-11.7,1.478-8.363.916-20.066,2.556-5.719.8-34.5,4.743-39.719,6.383-.1,0-.074.222,0,.222,5.467,0,34.148-4.522,39.9-5.423,11.673-1.847,8.3-1.478,19.948-3.413a.165.165,0,1,0-.059-.325Z" transform="translate(-84.644 17.849)" fill="#37474f"/>
      <path id="Path_68" data-name="Path 68" d="M395.787,259.191c-7.787-13.033-40.428-68.267-47.506-70.809-6.428-2.305-135.13.369-137.037.384-.133,0-.148.222,0,.222,15.235-.207,132.87-.621,136.224.709,6.975,2.763,46.575,68.3,47.61,69.848C395.358,259.886,396.068,259.575,395.787,259.191Z" transform="translate(-144.352 -2.743)" fill="#37474f"/>
      <path id="Path_69" data-name="Path 69" d="M180.252,178.838s-4.064,38.8,15.619,58.116c23.568,23.1,179.09,17.259,203.191,9.472s24.854-46.679-1.478-55.692c-25.12-8.57-136.179-13.506-138.81-14.555s-10.343-13.3-10.343-13.3Z" transform="translate(-159.271 -14.477)" fill="#263238"/>
      <path id="Path_70" data-name="Path 70" d="M208.749,172.98c0-.192-.31-.133-.31,0a21.47,21.47,0,0,1-5.009,13.772c-3.694,4.27-9.147,6.649-14.067,9.147-.473.236-.118.975.369.842a43.237,43.237,0,0,0,8.7-3.753A21.234,21.234,0,0,0,205,187.534a18.736,18.736,0,0,0,3.753-14.555Z" transform="translate(-154.86 -9.711)" fill="#37474f"/>
      <path id="Path_71" data-name="Path 71" d="M238.651,174.7c-1.108-1.478-2.305-2.734-3.458-4.108-2.7-3.221-5.438-6.472-8.275-9.59-.281-.3-.8.118-.561.443,1.921,2.512,3.945,4.935,5.911,7.388,1.034,1.256,2.054,2.512,3.088,3.753a23.716,23.716,0,0,1,2.881,3.65c.739,1.389-.236,2.571-1.67,2.734a5.038,5.038,0,0,1-3.472-1.286,45.536,45.536,0,0,1-5.911-6.28c-1.153-1.285-2.29-2.571-3.443-3.842s-2.556-2.63-3.783-3.99a.105.105,0,0,0-.163.133c1.079,1.478,2.069,2.955,3.147,4.433s2.172,2.955,3.28,4.433,2.143,2.719,3.266,4.034a13.167,13.167,0,0,0,3.31,2.955c2.054,1.212,5.645,1.478,6.738-1.182A3.783,3.783,0,0,0,238.651,174.7Z" transform="translate(-140.226 -15.422)" fill="#37474f"/>
      <path id="Path_72" data-name="Path 72" d="M393.978,240.75c-8.3.148-16.594.635-24.884.813s-16.476.222-24.706.148q-24.81-.236-49.56-1.936c-16.668-1.153-34.651-2.807-51.215-5.113-7.92-1.093-15.959-2.01-23.79-3.694a37.356,37.356,0,0,1-18.751-9.575c-10.728-10.343-14.909-25.7-16.609-40.31q-.355-2.955-.576-5.911c0-.133-.222-.133-.207,0,.96,14.983,3.3,30.617,12.722,42.659a37.488,37.488,0,0,0,15.353,11.91c7.388,2.955,15.648,3.679,23.465,4.728,16.638,2.261,34.68,4,51.407,5.3s33.69,2.113,50.565,2.364,33.764,0,50.624-.813c2.054-.1,4.108-.222,6.162-.414a.089.089,0,0,0,0-.162Z" transform="translate(-157.468 -8.653)" fill="#37474f"/>
      <path id="Path_73" data-name="Path 73" d="M392.481,206a26.761,26.761,0,0,0-11.112-15.9c-5.911-4.078-13.107-5.911-20.185-6.96-8.009-1.167-16.106-1.758-24.145-2.542q-24.78-2.394-49.575-4.433c-16.52-1.359-52.1-4.123-54.1-4.211a.155.155,0,0,0,0,.31c15.959,1.773,30.469,3.3,46.442,4.743s32.109,2.955,48.156,4.581q11.984,1.182,23.982,2.409c7.388.768,15.028,1.478,21.973,4.433a27.542,27.542,0,0,1,14.363,12.191,28.71,28.71,0,0,1,2.379,18.456,32.507,32.507,0,0,1-7.713,15.6A27.691,27.691,0,0,1,368.5,243.4c-1.478.31-3.221.547-4.566.813-.1,0-.207.236-.1.236,11.939.3,22.992-8.423,27.307-19.328A31.917,31.917,0,0,0,392.481,206Z" transform="translate(-133.806 -10.14)" fill="#37474f"/>
      <path id="Path_74" data-name="Path 74" d="M227.92,133.87c28.075,14.215,57.067,19.313,65.622,18.352,10.831-1.212,47.935-25.608,49.826-27.425,4.61-4.522-20.687-41.152-25.859-36.527-7.817,7.034-33.986,30.336-37.281,30.587s-23.051-.207-51.082-2.157C209.775,115.326,210.514,125,227.92,133.87Z" transform="translate(-142.632 -50.306)" fill="#eb9481"/>
      <path id="Path_75" data-name="Path 75" d="M305.2,133.377c4.64-1.478,25.342-9.723,30.587-13.3s19.579-15.116,17.229-19.387-6.827-1.271-6.827-1.271,5.29-5.792,2.542-9.9-9.56.813-9.56.813,4.994-6.354,1.951-10.255-9.028,2.2-9.028,2.2,4.832-5.6.975-7.758c-4.655-2.586-12.412,8.733-18.485,12.264-1.389.813-29.183,14.318-29.183,14.318Z" transform="translate(-108.882 -56.861)" fill="#eb9481"/>
      <path id="Path_76" data-name="Path 76" d="M323.448,79.375c-5.719,8.319-9.664,10.964-18.8,14.865-.177,0-.1.355.089.3,9.294-2.955,14.776-5.615,19.121-14.909C324.084,79.183,323.729,78.932,323.448,79.375Z" transform="translate(-99.734 -54.473)" fill="#263238"/>
      <path id="Path_77" data-name="Path 77" d="M328.644,84.7c-6.694,8.112-10.949,11.008-20.214,15.811a.133.133,0,0,0,.118.236C318.02,96.8,323.324,94.083,329,85.1,329.25,84.685,328.954,84.331,328.644,84.7Z" transform="translate(-97.911 -51.893)" fill="#263238"/>
      <path id="Path_78" data-name="Path 78" d="M333.089,91.5c-7.048,7.388-11.57,10.772-21.16,14.274a.192.192,0,0,0,.1.355c10.122-2.615,15.8-6.812,21.263-14.392C333.665,91.217,333.532,91.024,333.089,91.5Z" transform="translate(-96.253 -48.701)" fill="#263238"/>
      <path id="Path_79" data-name="Path 79" d="M281.56,101.555s5.851-11.127,9.516-15.56,23.273-15.574,25.933-11.467c3.443,5.29-6.605,13.979-12.087,17.6,0,0,7.964,12.235,2.113,20.037S281.56,101.555,281.56,101.555Z" transform="translate(-110.716 -57.103)" fill="#eb9481"/>
      <path id="Path_80" data-name="Path 80" d="M310.113,75.43c-.355,7.078-7.846,11.378-12.9,15.279a.576.576,0,0,0,0,.96c2.955,5.349,5.659,13.772,2.837,19.594a.148.148,0,0,0,.251.148c3.871-5.911,1.936-14.318-1.729-19.963,5.246-3.931,12.575-8.556,11.585-16.018Z" transform="translate(-103.362 -56.246)" fill="#263238"/>
      <path id="Path_81" data-name="Path 81" d="M310.281,89.09,337.13,132.8s-34.843,21.987-45.807,22.564-46.9-11.821-65.474-20.687-15-21.574.665-20.687,53.993,2.719,55.338,2.143S310.281,89.09,310.281,89.09Z" transform="translate(-143.323 -49.722)" fill="#fc2a40"/>
      <path id="Path_82" data-name="Path 82" d="M289.375,118.351c-2.955-4.891-5.911-9.8-9.058-14.57-1.8-2.719-3.576-5.438-5.393-8.142a.118.118,0,0,0-.192.118c2.793,5.009,5.6,10.048,8.615,14.939s5.911,9.767,9.028,14.6c1.744,2.748,3.561,5.438,5.482,8.068h.089C295.329,128.133,292.359,123.212,289.375,118.351Z" transform="translate(-113.979 -46.607)" fill="#263238"/>
      <path id="Path_83" data-name="Path 83" d="M262.5,140.843A323.607,323.607,0,0,1,225.881,126.7c-18.441-8.866-15-21.588.665-20.687l3.916.222Z" transform="translate(-143.282 -41.659)" opacity="0.1"/>
      <path id="Path_84" data-name="Path 84" d="M177.128,213.515c.222.281,95.781-8.733,96.771-9.708,1.389-1.374-6.679-73.394-21.677-96.416-3.753-5.763-17.732-7.107-24.662-2.6C193.382,127.073,176.36,212.51,177.128,213.515Z" transform="translate(-160.609 -43.508)" fill="#fc2a40"/>
      <path id="Path_85" data-name="Path 85" d="M219.374,111.217c-16.949,13.831-61.086,69.065-51.171,81.581s75.256,6.369,94.185.31c5.645-1.8-9.974-37.532-16.092-39.143-5.1-1.345-33.2,7.167-33.764,5.541s5.29-13.979,14.776-36.1C238.273,97.889,226.851,105.114,219.374,111.217Z" transform="translate(-165.545 -41.941)" fill="#eb9481"/>
      <path id="Path_86" data-name="Path 86" d="M238.53,136.658c12.649,0,15.9,1.891,26.6-3.812,6.974-3.738,12.368-.887,7.743,5.911-7.565,11.156-23.864,14.643-29.863,14.215Z" transform="translate(-131.269 -29.614)" fill="#eb9481"/>
      <path id="Path_87" data-name="Path 87" d="M215.14,142.366s14.983-5.911,28.445-7.226c9.324-.946,29.8-.754,46.383,21.736,3.931,5.334,5.733,15.722-3.842,9.339-6.812-4.536-9.753-9.457-14.2-11.378,0,0,.739,13.491-4.758,17.214a121.163,121.163,0,0,1-15.057,8.718,27.211,27.211,0,0,1-1.891-2.675s-5.452,2.955-14.688.842Z" transform="translate(-142.441 -27.86)" fill="#eb9481"/>
      <path id="Path_88" data-name="Path 88" d="M243.046,135.4c4,2.837,12.383,8.984,17.5,16.4,5.689,8.23,14.392,25.622,8.275,29.76-4.433,3.029-8.408-3.325-8.408-3.325s2.1,7.95-2.556,9.8c-4.241,1.685-6.974-3.413-6.974-3.413s.428,5.039-3.96,5.911c-5.29,1-5.334-9.723-11.57-13.3C233.944,176.345,243.046,135.4,243.046,135.4Z" transform="translate(-132.859 -27.602)" fill="#eb9481"/>
      <path id="Path_89" data-name="Path 89" d="M245.819,149.572a39.9,39.9,0,0,1,9.664,21.707c0,.207-.133.325-.192.148a98.233,98.233,0,0,0-9.56-21.8S245.774,149.542,245.819,149.572Z" transform="translate(-127.83 -20.836)" fill="#263238"/>
      <path id="Path_90" data-name="Path 90" d="M240.294,153.63c2.586,3.118,7.979,13.062,8.363,22.165,0,.207-.148.31-.192.133A106.393,106.393,0,0,0,240.22,153.6.066.066,0,0,1,240.294,153.63Z" transform="translate(-130.462 -18.91)" fill="#263238"/>
      <path id="Path_91" data-name="Path 91" d="M253.624,148.321c3.886,1.744,6.236,4.078,9.339,6.915a53.688,53.688,0,0,0,4.758,4c1.478,1.123,3.768,2.793,5.7,1.64a3.31,3.31,0,0,0,1.2-3.206,16.107,16.107,0,0,0-1.6-4.891s.074-.118.1,0a23.644,23.644,0,0,1,1.876,4.433,5.393,5.393,0,0,1-.074,3.206c-.887,2.157-3.561,2.083-5.334,1.226a17.318,17.318,0,0,1-2.955-1.98c-.916-.694-1.773-1.478-2.63-2.187-1.744-1.566-3.4-3.221-5.127-4.8a53.536,53.536,0,0,0-5.32-4.152.108.108,0,1,1,.059-.207Z" transform="translate(-124.125 -21.432)" fill="#263238"/>
      <path id="Path_92" data-name="Path 92" d="M260.756,163.691a125.219,125.219,0,0,0-6.62-15.294s0-.118.089,0a66.36,66.36,0,0,1,7.566,14.776,22.164,22.164,0,0,1,1.345,8.866c-.561,4.226-3.472,4.64-4.536,4.7a5.482,5.482,0,0,1-3.517-1.064,11.169,11.169,0,0,1-2.852-3.517s0-.133.1,0c1.241,1.862,3.443,3.827,5.778,3.842a3.916,3.916,0,0,0,2.807-1.049,5.038,5.038,0,0,0,1.138-3.31,23.345,23.345,0,0,0-1.3-7.95Z" transform="translate(-124.725 -21.419)" fill="#263238"/>
      <path id="Path_93" data-name="Path 93" d="M238.581,154.874l14.466,45.393s-81.7,7.019-86.664-7.7,33.173-64.558,49.191-78.4c18.559-16.047,19.771-9.56,14.023,6.117-6.014,16.4-16.49,39.9-16.49,39.9Z" transform="translate(-165.941 -42.185)" fill="#fc2a40"/>
      <path id="Path_94" data-name="Path 94" d="M180.528,150.879A94.962,94.962,0,0,1,193,145.663a91.028,91.028,0,0,1,12.974-3.251c2.512-.473,5.024-.813,7.551-1.182,0,0,.089.1,0,.118a116.187,116.187,0,0,0-13.077,3.147c-4.285,1.256-8.526,2.571-12.767,3.975-2.394.8-4.743,1.714-7.107,2.586C180.483,151.1,180.424,150.938,180.528,150.879Z" transform="translate(-158.999 -24.818)" fill="#263238"/>
      <path id="Path_95" data-name="Path 95" d="M223.211,144.734c-.414,0-23.066,4.256-23.82,4.433.133-.31,5.585-11.319,6.4-12.929.089-.163.148-.325.236-.488.5-.694.99-1.389,1.478-2.113l1.8-2.763h0c-.635.887-1.286,1.788-1.906,2.689-.3.414-.576.827-.857,1.256.547-1.138,1.079-2.29,1.611-3.428.842-1.847,1.625-3.694,2.409-5.556,0,0-.074-.1-.1,0-1.611,3.206-3.31,6.369-4.935,9.56s-7.758,14.968-7.713,14.968,25.017-5.186,25.5-5.319a.164.164,0,0,0-.1-.31Z" transform="translate(-150.719 -32.193)" fill="#263238"/>
      <path id="Path_96" data-name="Path 96" d="M216.028,165.224c-1.581-5.054-3.133-10.137-4.906-15.131-1-2.852-1.995-5.7-3.029-8.526,0-.118-.222,0-.192,0,1.389,5.142,2.793,10.343,4.433,15.382s3.192,10.122,4.861,15.161c.96,2.852,1.995,5.674,3.133,8.482h.1C219.19,175.42,217.624,170.307,216.028,165.224Z" transform="translate(-145.9 -24.682)" fill="#263238"/>
      <path id="Path_97" data-name="Path 97" d="M251.736,171.648c-.621-1.478-1.374-3.443-2.039-4.832-.177-.369-.443-.34-.325,0,.443,1.271.768,2.675,1.2,3.99-1.138,0-2.29.1-3.428.192l-3.96.281c-2.6.177-5.187.325-7.772.458-5.26.251-10.506.384-15.766.414a304.272,304.272,0,0,1-31.577-1.315c-2.955-.3-5.911-.635-8.777-1.079a82.754,82.754,0,0,1-8.57-1.581s-.118.118,0,.133a47.087,47.087,0,0,0,7.388,1.995c2.63.488,5.275.916,7.92,1.241,5.275.65,10.595,1.034,15.9,1.256,10.536.458,21.1.458,31.636,0q4.433-.177,8.866-.458c1.478-.089,2.955-.177,4.433-.31A27.17,27.17,0,0,0,251.736,171.648Z" transform="translate(-163.684 -12.724)" fill="#263238"/>
      <rect id="Rectangle_34" data-name="Rectangle 34" width="104.159" height="4.197" transform="translate(78.639 168.293)" fill="#455a64"/>
      <rect id="Rectangle_35" data-name="Rectangle 35" width="57.628" height="4.197" transform="translate(78.639 168.293)" fill="#a6a6a6"/>
      <path id="Path_98" data-name="Path 98" d="M256.98,199.222h91.274l12.9-62H269.88Z" transform="translate(-122.456 -26.733)" fill="#a6a6a6"/>
      <path id="Path_99" data-name="Path 99" d="M259.78,199.222h91.289l12.885-62H272.68Z" transform="translate(-121.119 -26.733)" fill="#c7c7c7"/>
      <path id="Path_100" data-name="Path 100" d="M290.925,161.108a5.393,5.393,0,0,0,5.452,6.088,6.945,6.945,0,0,0,6.723-6.088,5.379,5.379,0,0,0-5.452-6.088,6.93,6.93,0,0,0-6.723,6.088Z" transform="translate(-106.265 -18.231)" fill="#ebebeb"/>
      <path id="Path_101" data-name="Path 101" d="M235.4,130.968s-16.727-16.254-27.5-15.781l-9.176,8.171s-2.955.99-3.945-.9c-2.32-4.7-2.822-16.092,6.93-23.524,8.94-6.812,23.642-6.383,35.907-3.206,11.821,3.044,22.032,10.8,18.456,18.5S235.4,130.968,235.4,130.968Z" transform="translate(-152.835 -47.611)" fill="#fc2a40"/>
      <path id="Path_102" data-name="Path 102" d="M232.011,126.31s13.461-9.693,14.776-15.427-10.092-11.127-17.5-13.3c-11.452-3.266-19.209-2.5-25.608,3.635S232.011,126.31,232.011,126.31Z" transform="translate(-148.288 -46.573)" opacity="0.1"/>
      <path id="Path_103" data-name="Path 103" d="M229.186,126.1c-4.256.488-13.713-6.886-17.732-13.387-.266-.443.222-5.29.532-11.2.177-3.591.3-7.58.133-11.245L235.3,94.821a58.175,58.175,0,0,0-1.6,14.141,7.717,7.717,0,0,0,.222,1.478,1.276,1.276,0,0,1,0,.251C234.639,113.513,235.939,125.334,229.186,126.1Z" transform="translate(-144.238 -49.158)" fill="#eb9481"/>
      <path id="Path_104" data-name="Path 104" d="M233.215,110.364a.843.843,0,0,1,0,.236,15.573,15.573,0,0,1-2.349.236c-13.062.281-16.949-15.471-17.835-20.347l21.514,4.226a59.1,59.1,0,0,0-1.6,14.156A9.814,9.814,0,0,0,233.215,110.364Z" transform="translate(-143.449 -49.053)" fill="#263238"/>
      <path id="Path_105" data-name="Path 105" d="M207.167,79.67c-1,8.452,7.388,30.853,13.993,34.991,9.6,6,23.258,4.3,27.839-6.782,4.433-10.728-6.989-39.719-14.2-43.265C224.189,59.382,208.659,67.184,207.167,79.67Z" transform="translate(-146.289 -62.201)" fill="#eb9481"/>
      <path id="Path_106" data-name="Path 106" d="M221.894,81.824a16.106,16.106,0,0,0,1.684-1.315,3.562,3.562,0,0,0,1.478-1.67,1.093,1.093,0,0,0-.606-1.2,2.719,2.719,0,0,0-2.689.606,4.019,4.019,0,0,0-1.625,2.379,1.167,1.167,0,0,0,1.758,1.2Z" transform="translate(-140.063 -55.252)" fill="#263238"/>
      <path id="Path_107" data-name="Path 107" d="M233.335,77.9a20.687,20.687,0,0,1-2.128.163,3.414,3.414,0,0,1-2.2-.266,1.079,1.079,0,0,1-.369-1.286,2.734,2.734,0,0,1,2.409-1.359,4.108,4.108,0,0,1,2.808.665,1.182,1.182,0,0,1-.517,2.083Z" transform="translate(-136.033 -56.395)" fill="#263238"/>
      <path id="Path_108" data-name="Path 108" d="M226.173,92.333a2.5,2.5,0,0,0,1.581.473,4.537,4.537,0,0,0,1.478-.946h.089a2.216,2.216,0,0,1-1.655,1.478,1.7,1.7,0,0,1-1.655-.946C226,92.377,226.1,92.3,226.173,92.333Z" transform="translate(-137.25 -48.399)" fill="#263238"/>
      <path id="Path_109" data-name="Path 109" d="M226.181,94.837a5.423,5.423,0,0,0,4.241,1.123,6.25,6.25,0,0,0,1.906-.547,1.479,1.479,0,0,0,.34-.163,1.565,1.565,0,0,0,.31-.163.384.384,0,0,0,.192-.443h0a1.021,1.021,0,0,0,0-.148h0v-.133c-.369-1.182-1.079-2.955-1.079-2.955.5,0,2.955.31,2.778-.3a82.222,82.222,0,0,0-7.447-15.087.149.149,0,0,0-.266.133c1.758,4.861,4.359,9.383,6.191,14.23a9.545,9.545,0,0,0-2.7.089c-.148.1,1.478,3.354,1.581,3.9h0a7.6,7.6,0,0,1-5.911.148C226.136,94.6,226.048,94.734,226.181,94.837Z" transform="translate(-137.198 -56.001)" fill="#263238"/>
      <path id="Path_110" data-name="Path 110" d="M231.44,88.966a6.473,6.473,0,0,1-1.818,2.748,2.956,2.956,0,0,1-1.64.68c-1.33.089-1.744-1.02-1.847-2.054a7.385,7.385,0,0,1,0-1.64A8.482,8.482,0,0,0,231.44,88.966Z" transform="translate(-137.211 -49.908)" fill="#263238"/>
      <path id="Path_111" data-name="Path 111" d="M229.607,91.23a2.955,2.955,0,0,1-1.64.68c-1.33.089-1.744-1.02-1.847-2.054A2.955,2.955,0,0,1,229.607,91.23Z" transform="translate(-137.196 -49.424)" fill="#ff9abb"/>
      <path id="Path_112" data-name="Path 112" d="M224.668,82.15s-.089.118-.074.177c.517,1.478.842,3.339-.384,4.27h0C225.865,85.918,225.377,83.509,224.668,82.15Z" transform="translate(-138.109 -53.037)" fill="#263238"/>
      <path id="Path_113" data-name="Path 113" d="M223.713,81.362c-2.527.561-1.212,5.556,1.123,5.039S225.826,80.845,223.713,81.362Z" transform="translate(-139.001 -53.431)" fill="#263238"/>
      <path id="Path_114" data-name="Path 114" d="M230.51,80.15s.133,0,.148.1c.355,1.566,1,3.3,2.542,3.458V83.8C231.441,83.992,230.584,81.687,230.51,80.15Z" transform="translate(-135.1 -53.992)" fill="#263238"/>
      <path id="Path_115" data-name="Path 115" d="M231.491,78.85c2.438-.827,3.916,4.123,1.64,4.891S229.437,79.53,231.491,78.85Z" transform="translate(-135.106 -54.657)" fill="#263238"/>
      <path id="Path_116" data-name="Path 116" d="M241.928,72.544c-1.478-1.744-3.1-3.458-4.433-3.487s-.739,3.916-3.443,4.95c-3.62,1.389-7.24-2.305-12.353-.458-6.339,2.29-8.186,8.053-5.113,18.677,2.734,9.486-2.29,12.383-2.29,12.383s-10.949-19.623-7.181-28.371,16.254-15.87,27.336-12.058C238.485,65.628,241.928,72.544,241.928,72.544Z" transform="translate(-146.651 -62.122)" fill="#263238"/>
      <path id="Path_117" data-name="Path 117" d="M216.184,87.884s-6.708-6.413-9.723-3.871,3.073,12.56,7.388,13.3a4.108,4.108,0,0,0,4.98-3.251Z" transform="translate(-146.972 -52.431)" fill="#eb9481"/>
      <path id="Path_118" data-name="Path 118" d="M207.43,85.738v.118c2.955.561,4.994,2.852,6.561,5.334a2.261,2.261,0,0,0-3.458,0c-.074,0,0,.163.1.133a2.542,2.542,0,0,1,2.955.31,12.856,12.856,0,0,1,1.744,1.95c.177.236.606,0,.458-.266h0C215.069,89.757,211.316,85.339,207.43,85.738Z" transform="translate(-146.124 -51.335)" fill="#263238"/>
      <path id="Path_119" data-name="Path 119" d="M229.981,63.45a34.637,34.637,0,0,0-10.018-.488c-3.724.429-14.909,4.123-17.081,7.078s-.251,13.875,0,15.456,3.354,10.92,7.388,12.368.369-14.776,4.433-21.455S229.981,63.45,229.981,63.45Z" transform="translate(-148.785 -62.279)" fill="#fc2a40"/>
      <path id="Path_120" data-name="Path 120" d="M228.629,63.46s-11.1,6.28-15.2,12.944-.488,22.9-4.433,21.455c-1.758-.635-2.867-1.95-4.108-4.33-.443-4.891-.325-12.663,2.349-18.707,2.527-5.645,8.26-9.6,14.776-12.043a40.087,40.087,0,0,1,6.62.68Z" transform="translate(-147.434 -62.288)" opacity="0.1"/>
      <path id="Path_121" data-name="Path 121" d="M212.084,107.386c-.739-4.433.8-16.963,3.768-24.691s15.5-14.895,17.407-15.249c4.64-.857,6.191,1.079,6.812.488s-5.231-4.655-6.708-5.113a15.323,15.323,0,0,0-6.723,0c-1.98.532-13.949,4.773-17.111,11.1s-5.911,22.549-3.8,26.007c.488.842,1.832,1.123,2.527,2.305.916,1.552,1.744,3.413,2.541,4.433S212.158,107.756,212.084,107.386Z" transform="translate(-147.29 -62.447)" fill="#fc2a40"/>
      <path id="Path_122" data-name="Path 122" d="M214.777,75.161a23.46,23.46,0,0,1-3.517-1.478,16.416,16.416,0,0,1-3.221-2.113s-.177,0-.1.1a12.4,12.4,0,0,0,3.059,2.482,10.713,10.713,0,0,0,3.724,1.212C214.881,75.382,214.91,75.161,214.777,75.161Z" transform="translate(-145.891 -58.09)" fill="#263238"/>
      <path id="Path_123" data-name="Path 123" d="M210.709,92.071c-.192-.281-.473-.5-.68-.768a4.936,4.936,0,0,1-.665-.975,11.2,11.2,0,0,0-1-1.965A8.676,8.676,0,0,0,207,87.18a2.955,2.955,0,0,1-1.271-1.478c0-.089-.177,0-.148,0,.31,1.315,1.478,2.024,2.261,2.955a15.972,15.972,0,0,1,1.138,2.1,3.428,3.428,0,0,0,1.566,1.478C210.635,92.234,210.782,92.071,210.709,92.071Z" transform="translate(-147.008 -51.358)" fill="#263238"/>
      <path id="Path_124" data-name="Path 124" d="M211.1,88.423c-.532-.4-1.064-.724-1.566-1.167a14.613,14.613,0,0,1-1.315-1.389c-.414-.473-.768-.99-1.167-1.478s-1-1.108-1.478-1.7l-.1.089c.458.621.8,1.33,1.241,1.965a15.421,15.421,0,0,0,1.241,1.478,9.663,9.663,0,0,0,1.478,1.286,4.433,4.433,0,0,0,1.685.887S211.144,88.438,211.1,88.423Z" transform="translate(-147.06 -52.779)" fill="#263238"/>
      <path id="Path_125" data-name="Path 125" d="M211.44,84.955a12.248,12.248,0,0,1-2.955-2.069c-.872-.813-1.685-1.685-2.482-2.556,0,0-.177,0-.118.089a14.907,14.907,0,0,0,2.276,2.955,8.556,8.556,0,0,0,1.478,1.093,7.921,7.921,0,0,0,1.818.68C211.455,85.118,211.528,85,211.44,84.955Z" transform="translate(-146.868 -53.906)" fill="#263238"/>
      <path id="Path_126" data-name="Path 126" d="M211.936,81.955a4.285,4.285,0,0,1-1.478-.872c-.488-.384-.975-.783-1.478-1.2l-1.359-1.2a4.227,4.227,0,0,1-1.167-1.389h-.133a4.431,4.431,0,0,0,.9,1.566,12.878,12.878,0,0,0,1.389,1.478,17.554,17.554,0,0,0,1.566,1.2,2.955,2.955,0,0,0,1.625.606.117.117,0,1,0,.133-.192Z" transform="translate(-146.655 -55.353)" fill="#263238"/>
      <path id="Path_127" data-name="Path 127" d="M211.518,77.808c-.5-.3-.99-.591-1.478-.931s-.916-.68-1.374-1.034-.946-.754-1.389-1.153c0,0-.163,0-.1.1a11.468,11.468,0,0,0,1.182,1.359,12.775,12.775,0,0,0,1.374,1.138,14.145,14.145,0,0,0,1.478.946,4.625,4.625,0,0,0,1.64.635.1.1,0,0,0,.074-.177A8.869,8.869,0,0,0,211.518,77.808Z" transform="translate(-146.252 -56.6)" fill="#263238"/>
      <path id="Path_128" data-name="Path 128" d="M216.813,72.969a19.448,19.448,0,0,0-1.684-1.212,20.561,20.561,0,0,0-1.862-1.02,19.3,19.3,0,0,0-3.9-1.478c-.074,0-.133.1,0,.133,2.468,1.241,4.98,2.394,7.388,3.65Z" transform="translate(-145.237 -59.193)" fill="#263238"/>
      <path id="Path_129" data-name="Path 129" d="M217.492,69.552a9.062,9.062,0,0,0-1.8-1.034,19.464,19.464,0,0,0-4.182-1.138c-.089,0-.133.1,0,.133,1.3.473,2.6.916,3.871,1.478.621.266,1.256.547,1.847.872s1.093.8,1.67,1.153h.089A5.127,5.127,0,0,0,217.492,69.552Z" transform="translate(-144.216 -60.091)" fill="#263238"/>
      <path id="Path_130" data-name="Path 130" d="M219.4,67.8a9.442,9.442,0,0,0-1.684-1.049,11.333,11.333,0,0,0-3.591-1.079.074.074,0,1,0,0,.148,21.042,21.042,0,0,1,3.487,1.478c.561.281,1.108.606,1.67.916a18.359,18.359,0,0,0,1.625.99s.074,0,0-.089A10.418,10.418,0,0,0,219.4,67.8Z" transform="translate(-142.962 -60.908)" fill="#263238"/>
      <path id="Path_131" data-name="Path 131" d="M220.178,65.612c-.547-.266-1.093-.488-1.655-.709a5.7,5.7,0,0,0-1.7-.473c-.089,0-.1.1,0,.148,1.049.473,2.1.99,3.133,1.478a14.781,14.781,0,0,1,2.6,1.877h.074A5.63,5.63,0,0,0,220.178,65.612Z" transform="translate(-141.671 -61.5)" fill="#263238"/>
      <path id="Path_132" data-name="Path 132" d="M222.235,64.569a9.472,9.472,0,0,0-3.31-1.079.074.074,0,1,0,0,.148,11.186,11.186,0,0,1,3.088,1.315,15.072,15.072,0,0,1,2.689,2.054h.089A7.773,7.773,0,0,0,222.235,64.569Z" transform="translate(-140.67 -61.949)" fill="#263238"/>
      <path id="Path_133" data-name="Path 133" d="M225.876,65.718c-.163-.192-.355-.384-.532-.562a8.251,8.251,0,0,0-1.241-.931,16.462,16.462,0,0,0-2.955-1.286c-.089,0-.133.118,0,.148a13.034,13.034,0,0,1,2.778,1.419,8.86,8.86,0,0,1,1.2.916,5.74,5.74,0,0,1,.532.5,4.347,4.347,0,0,0,.5.532.074.074,0,0,0,.118-.089,2.2,2.2,0,0,0-.4-.65Z" transform="translate(-139.612 -62.212)" fill="#263238"/>
      <path id="Path_134" data-name="Path 134" d="M227.211,65.214a11.821,11.821,0,0,0-2.143-1.478c-.384-.192-.783-.369-1.167-.576-.089,0-.163.089,0,.133a6.682,6.682,0,0,1,1.123.68l1.034.695,1.02.709c.34.236.665.532,1.034.739v-.1a6.293,6.293,0,0,0-.9-.8Z" transform="translate(-138.302 -62.107)" fill="#263238"/>
      <path id="Path_135" data-name="Path 135" d="M232.334,124.387S218.888,101.867,202.22,99.71l1.478,12.516s9.93,0,27.5,15.781Z" transform="translate(-148.612 -44.649)" fill="#fc2a40"/>
      <path id="Path_136" data-name="Path 136" d="M200.17,109.124a21.115,21.115,0,0,1,8.94,1.153,39.391,39.391,0,0,1,8.216,3.783,68.907,68.907,0,0,1,7.477,5.113l3.5,2.955,3.369,3.074.369.34.428-.222a75.8,75.8,0,0,0,8.955-5.452,45.637,45.637,0,0,0,4.123-3.236c1.3-1.167,6.694-6.221,7.787-9.9-1.936,3.576-9.516,10.521-12.427,12.368-1.478.916-2.955,1.773-4.433,2.586s-3.044,1.655-4.581,2.379l.8.133-3.369-3.162c-1.167-1.02-2.364-2.01-3.561-2.955s-2.482-1.847-3.768-2.719a43.656,43.656,0,0,0-12.6-5.822,21.347,21.347,0,0,0-2.276-.488,14.869,14.869,0,0,0-2.32-.236,13.3,13.3,0,0,0-4.625.31Z" transform="translate(-149.591 -41.296)" fill="#263238"/>
      <path id="Path_137" data-name="Path 137" d="M197,116.351a51.334,51.334,0,0,0,9.117-8.171A48.585,48.585,0,0,0,197,116.351Z" transform="translate(-151.105 -40.604)" fill="#263238"/>
      <path id="Path_138" data-name="Path 138" d="M218.444,113.724a92.01,92.01,0,0,0-1.374,15.8c0,3.694,1.552,16.9,5.645,16.387s-2.689-9-3.945-15.973.532-12.1.739-16.254Z" transform="translate(-141.519 -37.977)" fill="#fc2a40"/>
      <g id="Group_17" data-name="Group 17" transform="translate(75.551 75.703)" opacity="0.1">
        <path id="Path_139" data-name="Path 139" d="M218.444,113.724a92.01,92.01,0,0,0-1.374,15.8c0,3.694,1.552,16.9,5.645,16.387s-2.689-9-3.945-15.973.532-12.1.739-16.254Z" transform="translate(-217.07 -113.68)"/>
      </g>
      <path id="Path_140" data-name="Path 140" d="M228.2,114.08a130.671,130.671,0,0,1,3.251,15.308c.488,3.325.739,15.4-2.955,15.441s1.286-8.423,1.478-14.776-2.039-12.117-2.734-15.855Z" transform="translate(-136.71 -37.785)" fill="#fc2a40"/>
      <g id="Group_18" data-name="Group 18" transform="translate(90.43 76.295)" opacity="0.1">
        <path id="Path_141" data-name="Path 141" d="M228.2,114.08a130.671,130.671,0,0,1,3.251,15.308c.488,3.325.739,15.4-2.955,15.441s1.286-8.423,1.478-14.776-2.039-12.117-2.734-15.855Z" transform="translate(-227.139 -114.08)"/>
      </g>
    </g>
    <g id="freepik--Padlock--inject-5" transform="translate(465.404 36.28)">
      <path id="Path_142" data-name="Path 142" d="M403.267,71.95v36.114h-10.2V71.95c0-13.742-10.432-24.913-23.273-24.913S346.54,58.208,346.54,71.95V92.933H336.33V71.95c0-19.682,15.013-35.67,33.469-35.67S403.267,52.268,403.267,71.95Z" transform="translate(-323.253 -36.28)" fill="#dbdbdb"/>
      <path id="Path_143" data-name="Path 143" d="M384.926,68.744V92.755h-10.2V68.33Z" transform="translate(-304.911 -20.972)" fill="#a6a6a6"/>
      <rect id="Rectangle_36" data-name="Rectangle 36" width="93.091" height="68.592" transform="translate(0 65.371)" fill="#fc2a40"/>
      <rect id="Rectangle_37" data-name="Rectangle 37" width="46.546" height="68.592" transform="translate(46.546 65.371)" opacity="0.1"/>
      <path id="Path_144" data-name="Path 144" d="M365.1,109.665l3.546,16.816H353.6l3.546-16.816a7.521,7.521,0,1,1,7.95,0Z" transform="translate(-315.004 -7.87)" fill="#263238"/>
      <path id="Path_145" data-name="Path 145" d="M331.3,107.467a79.6,79.6,0,0,1-1-24.337c5.083.236,10.166.547,15.234,1.167-4.743.591-9.486.9-14.23,1.123L332.42,84.3c.177,1.936.281,3.857.31,5.792a72.2,72.2,0,0,1-1.478,17.377Z" transform="translate(-326.376 -13.902)" fill="#fff"/>
    </g>
  </g>
</svg>
